# xmcd
#
# Track frame offsets: 
#        150
#        23462
#        39840
#        58234
#        65118
#        80211
#        95951
#        110590
#        125618
#        141234
#        158684
#        176018
#        192504
#        208957
#        224123
#        242629
#        256666
#        268305
#        283183
#        295604
#        310899
#        326161
#
# Disc length: 4572 seconds
#
# Revision: 3
# Processed by: cddbd v1.5.2PL0 Copyright (c) Steve Scherf et al.
# Submitted via: ExactAudioCopyFreeDBPlugin 1.0
#
DISCID=6811da16
DTITLE=Linda Ronstadt - The Linda Ronstadt Box Set - CD1
DYEAR=1999
DGENRE=Pop
TTITLE0=When We Ran
TTITLE1=Ruler Of My Heart
TTITLE2=Cry eTil My Tears Run Dry
TTITLE3=We Will Rock You
TTITLE4=Winter Light
TTITLE5=Anyone Who Had A Heart
TTITLE6=I Just Don't Know What To Do With Myself
TTITLE7=Don't Talk (Put Your Head On My Shoulder)
TTITLE8=Do What You Gotta Do
TTITLE9=Heartbeats Accelerating
TTITLE10=Goodbye My Friend
TTITLE11=Adios
TTITLE12=Cry Like A Rainstorm
TTITLE13=Trouble Again
TTITLE14=Easy For You To Say
TTITLE15=The Moon Is A Harsh Mistress
TTITLE16=Get Closer
TTITLE17=Hurts So Bad
TTITLE18=I Can't Let Go
TTITLE19=Ooh Baby Baby
TTITLE20=Just One Look
TTITLE21=Poor Poor Pitiful Me
EXTD=Boxed Set YEAR: 1999
EXTT0=
EXTT1=
EXTT2=
EXTT3=
EXTT4=
EXTT5=
EXTT6=
EXTT7=
EXTT8=
EXTT9=
EXTT10=
EXTT11=
EXTT12=
EXTT13=
EXTT14=
EXTT15=
EXTT16=
EXTT17=
EXTT18=
EXTT19=
EXTT20=
EXTT21=
PLAYORDER=
